<?xml version="1.0" standalone="yes"?>

<svg version="1.1" viewBox="0.0 0.0 1175.2309711286089 842.1364829396325" fill="none" stroke="none" stroke-linecap="square" stroke-miterlimit="10" xmlns="http://www.w3.org/2000/svg" xmlns:xlink="http://www.w3.org/1999/xlink"><clipPath id="p.0"><path d="m0 0l1175.231 0l0 842.1365l-1175.231 0l0 -842.1365z" clip-rule="nonzero"></path></clipPath><g clip-path="url(#p.0)"><path fill="#000000" fill-opacity="0.0" d="m0 0l1175.231 0l0 842.1365l-1175.231 0z" fill-rule="evenodd"></path><path fill="#f4cccc" d="m287.99466 421.06824l0 0c0 -165.47668 134.14536 -299.62204 299.62204 -299.62204l0 0c79.46472 0 155.67474 31.56723 211.8648 87.75726c56.190002 56.190033 87.75726 132.40009 87.75726 211.86478l0 0c0 165.47668 -134.14539 299.62207 -299.62207 299.62207l0 0c-165.47668 0 -299.62204 -134.14539 -299.62204 -299.62207z" fill-rule="evenodd"></path><path stroke="#000000" stroke-width="1.0" stroke-linejoin="round" stroke-linecap="butt" d="m287.99466 421.06824l0 0c0 -165.47668 134.14536 -299.62204 299.62204 -299.62204l0 0c79.46472 0 155.67474 31.56723 211.8648 87.75726c56.190002 56.190033 87.75726 132.40009 87.75726 211.86478l0 0c0 165.47668 -134.14539 299.62207 -299.62207 299.62207l0 0c-165.47668 0 -299.62204 -134.14539 -299.62204 -299.62207z" fill-rule="evenodd"></path><path fill="#d9ead3" d="m390.49728 421.06833l0 0c0 -108.87402 88.25281 -197.13387 197.11813 -197.13387l0 0c52.27899 0 102.41675 20.769394 139.38354 57.73918c36.966797 36.969757 57.73456 87.11151 57.73456 139.39468l0 0c0 108.87399 -88.25281 197.13382 -197.1181 197.13382l0 0c-108.865326 0 -197.11813 -88.25983 -197.11813 -197.13382z" fill-rule="evenodd"></path><path stroke="#000000" stroke-width="1.0" stroke-linejoin="round" stroke-linecap="butt" d="m390.49728 421.06833l0 0c0 -108.87402 88.25281 -197.13387 197.11813 -197.13387l0 0c52.27899 0 102.41675 20.769394 139.38354 57.73918c36.966797 36.969757 57.73456 87.11151 57.73456 139.39468l0 0c0 108.87399 -88.25281 197.13382 -197.1181 197.13382l0 0c-108.865326 0 -197.11813 -88.25983 -197.11813 -197.13382z" fill-rule="evenodd"></path><path fill="#cfe2f3" d="m473.80447 421.06693l0 0c0 -62.85608 50.954926 -113.811005 113.811005 -113.811005l0 0c30.18457 0 59.132874 11.990753 80.47656 33.334473c21.343689 21.343689 33.334473 50.29196 33.334473 80.47653l0 0c0 62.85611 -50.954956 113.811005 -113.811035 113.811005l0 0c-62.85608 0 -113.811005 -50.954895 -113.811005 -113.811005z" fill-rule="evenodd"></path><path stroke="#000000" stroke-width="1.0" stroke-linejoin="round" stroke-linecap="butt" d="m473.80447 421.06693l0 0c0 -62.85608 50.954926 -113.811005 113.811005 -113.811005l0 0c30.18457 0 59.132874 11.990753 80.47656 33.334473c21.343689 21.343689 33.334473 50.29196 33.334473 80.47653l0 0c0 62.85611 -50.954956 113.811005 -113.811035 113.811005l0 0c-62.85608 0 -113.811005 -50.954895 -113.811005 -113.811005z" fill-rule="evenodd"></path><path fill="#000000" d="m521.7932 435.46692l0 -28.640625l9.859375 0q3.34375 0 5.09375 0.421875q2.46875 0.5625 4.203125 2.046875q2.265625 1.90625 3.390625 4.890625q1.125 2.984375 1.125 6.8125q0 3.25 -0.765625 5.78125q-0.765625 2.515625 -1.953125 4.171875q-1.1875 1.640625 -2.609375 2.59375q-1.421875 0.9375 -3.421875 1.4375q-2.0 0.484375 -4.59375 0.484375l-10.328125 0zm3.78125 -3.375l6.109375 0q2.84375 0 4.453125 -0.53125q1.609375 -0.53125 2.5625 -1.484375q1.34375 -1.34375 2.09375 -3.625q0.765625 -2.28125 0.765625 -5.515625q0 -4.5 -1.484375 -6.90625q-1.46875 -2.40625 -3.578125 -3.234375q-1.53125 -0.578125 -4.90625 -0.578125l-6.015625 0l0 21.875zm23.339844 -7.0q0 -5.765625 3.203125 -8.53125q2.671875 -2.3125 6.53125 -2.3125q4.265625 0 6.984375 2.8125q2.71875 2.796875 2.71875 7.734375q0 4.015625 -1.203125 6.3125q-1.203125 2.28125 -3.5 3.5625q-2.296875 1.265625 -5.0 1.265625q-4.359375 0 -7.046875 -2.796875q-2.6875 -2.796875 -2.6875 -8.046875zm3.609375 0q0 3.984375 1.734375 5.96875q1.75 1.984375 4.390625 1.984375q2.609375 0 4.34375 -1.984375q1.75 -2.0 1.75 -6.078125q0 -3.859375 -1.75 -5.828125q-1.75 -1.984375 -4.34375 -1.984375q-2.640625 0 -4.390625 1.96875q-1.734375 1.96875 -1.734375 5.953125zm19.949219 10.375l0 -20.75l3.140625 0l0 2.921875q0.984375 -1.53125 2.59375 -2.453125q1.625 -0.9375 3.703125 -0.9375q2.296875 0 3.765625 0.96875q1.484375 0.953125 2.09375 2.671875q2.453125 -3.640625 6.40625 -3.640625q3.078125 0 4.734375 1.71875q1.671875 1.703125 1.671875 5.265625l0 14.234375l-3.5 0l0 -13.0625q0 -2.109375 -0.34375 -3.03125q-0.34375 -0.9375 -1.25 -1.5q-0.890625 -0.578125 -2.09375 -0.578125q-2.1875 0 -3.640625 1.46875q-1.4375 1.453125 -1.4375 4.65625l0 12.046875l-3.515625 0l0 -13.484375q0 -2.34375 -0.859375 -3.515625q-0.859375 -1.171875 -2.8125 -1.171875q-1.484375 0 -2.75 0.78125q-1.265625 0.78125 -1.828125 2.296875q-0.5625 1.5 -0.5625 4.328125l0 10.765625l-3.515625 0zm46.851562 -2.5625q-1.953125 1.65625 -3.765625 2.34375q-1.796875 0.6875 -3.875 0.6875q-3.40625 0 -5.25 -1.671875q-1.828125 -1.671875 -1.828125 -4.265625q0 -1.53125 0.6875 -2.78125q0.6875 -1.265625 1.8125 -2.015625q1.125 -0.765625 2.53125 -1.15625q1.03125 -0.28125 3.125 -0.53125q4.265625 -0.515625 6.265625 -1.21875q0.03125 -0.71875 0.03125 -0.90625q0 -2.15625 -1.0 -3.03125q-1.34375 -1.1875 -4.0 -1.1875q-2.484375 0 -3.671875 0.875q-1.171875 0.859375 -1.75 3.0625l-3.4375 -0.46875q0.46875 -2.203125 1.546875 -3.5625q1.078125 -1.359375 3.109375 -2.09375q2.03125 -0.734375 4.703125 -0.734375q2.65625 0 4.3125 0.625q1.671875 0.625 2.453125 1.578125q0.78125 0.953125 1.09375 2.390625q0.171875 0.90625 0.171875 3.25l0 4.6875q0 4.890625 0.21875 6.203125q0.234375 1.296875 0.890625 2.484375l-3.671875 0q-0.546875 -1.09375 -0.703125 -2.5625zm-0.296875 -7.84375q-1.90625 0.78125 -5.734375 1.328125q-2.171875 0.3125 -3.078125 0.703125q-0.890625 0.390625 -1.375 1.140625q-0.484375 0.75 -0.484375 1.671875q0 1.40625 1.0625 2.34375q1.0625 0.9375 3.109375 0.9375q2.03125 0 3.609375 -0.890625q1.59375 -0.890625 2.328125 -2.4375q0.5625 -1.1875 0.5625 -3.515625l0 -1.28125zm9.027344 -14.1875l0 -4.046875l3.515625 0l0 4.046875l-3.515625 0zm0 24.59375l0 -20.75l3.515625 0l0 20.75l-3.515625 0zm8.871094 0l0 -20.75l3.15625 0l0 2.953125q2.296875 -3.421875 6.609375 -3.421875q1.875 0 3.4375 0.6875q1.578125 0.671875 2.359375 1.765625q0.78125 1.09375 1.09375 2.59375q0.203125 0.96875 0.203125 3.421875l0 12.75l-3.515625 0l0 -12.625q0 -2.140625 -0.421875 -3.203125q-0.40625 -1.0625 -1.453125 -1.703125q-1.046875 -0.640625 -2.453125 -0.640625q-2.234375 0 -3.875 1.4375q-1.625 1.421875 -1.625 5.40625l0 11.328125l-3.515625 0z" fill-rule="nonzero"></path><path fill="#000000" fill-opacity="0.0" d="m489.81888 245.56693l195.59055 0l0 41.858276l-195.59055 0z" fill-rule="evenodd"></path><path fill="#000000" d="m526.86414 262.38068l3.03125 0l0 13.234375q0 3.453125 -0.78125 5.484375q-0.78125 2.03125 -2.828125 3.3125q-2.03125 1.265625 -5.34375 1.265625q-3.21875 0 -5.265625 -1.109375q-2.046875 -1.109375 -2.921875 -3.203125q-0.8749695 -2.109375 -0.8749695 -5.75l0 -13.234375l3.0312195 0l0 13.21875q0 2.984375 0.546875 4.40625q0.5625 1.40625 1.90625 2.171875q1.359375 0.765625 3.3125 0.765625q3.34375 0 4.765625 -1.515625q1.421875 -1.515625 1.421875 -5.828125l0 -13.21875zm6.59375 17.953125l2.78125 -0.4375q0.234375 1.671875 1.296875 2.5625q1.078125 0.890625 3.0 0.890625q1.9375 0 2.875 -0.78125q0.9375 -0.796875 0.9375 -1.859375q0 -0.953125 -0.828125 -1.5q-0.578125 -0.375 -2.875 -0.953125q-3.09375 -0.78125 -4.296875 -1.34375q-1.1875 -0.578125 -1.8125 -1.578125q-0.609375 -1.015625 -0.609375 -2.234375q0 -1.109375 0.5 -2.046875q0.515625 -0.953125 1.390625 -1.578125q0.65625 -0.484375 1.78125 -0.8125q1.140625 -0.34375 2.4375 -0.34375q1.953125 0 3.421875 0.5625q1.484375 0.5625 2.1875 1.53125q0.703125 0.953125 0.96875 2.5625l-2.75 0.375q-0.1875 -1.28125 -1.09375 -2.0q-0.890625 -0.71875 -2.53125 -0.71875q-1.9375 0 -2.765625 0.640625q-0.828125 0.640625 -0.828125 1.5q0 0.546875 0.34375 0.984375q0.34375 0.453125 1.078125 0.75q0.421875 0.15625 2.484375 0.71875q2.984375 0.796875 4.15625 1.3125q1.1875 0.5 1.859375 1.46875q0.671875 0.96875 0.671875 2.40625q0 1.40625 -0.828125 2.65625q-0.8125 1.234375 -2.359375 1.921875q-1.546875 0.671875 -3.5 0.671875q-3.234375 0 -4.9375 -1.34375q-1.6875 -1.34375 -2.15625 -3.984375zm28.484375 -0.390625l2.90625 0.359375q-0.6875 2.546875 -2.546875 3.953125q-1.859375 1.40625 -4.75 1.40625q-3.640625 0 -5.78125 -2.234375q-2.125 -2.25 -2.125 -6.296875q0 -4.1875 2.15625 -6.5q2.15625 -2.3125 5.59375 -2.3125q3.328125 0 5.4375 2.265625q2.109375 2.265625 2.109375 6.375q0 0.25 -0.015625 0.75l-12.375 0q0.15625 2.734375 1.546875 4.1875q1.390625 1.453125 3.46875 1.453125q1.546875 0 2.640625 -0.8125q1.09375 -0.8125 1.734375 -2.59375zm-9.234375 -4.546875l9.265625 0q-0.1875 -2.09375 -1.0625 -3.140625q-1.34375 -1.625 -3.484375 -1.625q-1.9375 0 -3.265625 1.296875q-1.3125 1.296875 -1.453125 3.46875zm41.265625 1.859375l3.03125 0.765625q-0.953125 3.734375 -3.4375 5.703125q-2.46875 1.953125 -6.046875 1.953125q-3.703125 0 -6.03125 -1.5q-2.3125 -1.515625 -3.53125 -4.375q-1.203125 -2.859375 -1.203125 -6.140625q0 -3.578125 1.359375 -6.234375q1.375 -2.671875 3.890625 -4.046875q2.53125 -1.390625 5.5625 -1.390625q3.4375 0 5.78125 1.75q2.34375 1.75 3.265625 4.921875l-2.984375 0.703125q-0.796875 -2.5 -2.3125 -3.640625q-1.515625 -1.140625 -3.8125 -1.140625q-2.640625 0 -4.421875 1.265625q-1.765625 1.265625 -2.484375 3.40625q-0.71875 2.125 -0.71875 4.390625q0 2.921875 0.84375 5.109375q0.859375 2.171875 2.65625 3.25q1.796875 1.078125 3.890625 1.078125q2.546875 0 4.3125 -1.46875q1.765625 -1.46875 2.390625 -4.359375zm17.234375 5.984375q-1.5625 1.328125 -3.015625 1.875q-1.4375 0.546875 -3.09375 0.546875q-2.734375 0 -4.203125 -1.328125q-1.46875 -1.34375 -1.46875 -3.421875q0 -1.21875 0.546875 -2.21875q0.5625 -1.015625 1.453125 -1.625q0.90625 -0.609375 2.03125 -0.921875q0.828125 -0.21875 2.5 -0.421875q3.40625 -0.40625 5.015625 -0.96875q0.015625 -0.578125 0.015625 -0.734375q0 -1.71875 -0.796875 -2.421875q-1.078125 -0.953125 -3.203125 -0.953125q-1.984375 0 -2.9375 0.703125q-0.9375 0.6875 -1.390625 2.453125l-2.75 -0.375q0.375 -1.765625 1.234375 -2.84375q0.859375 -1.09375 2.484375 -1.671875q1.625 -0.59375 3.765625 -0.59375q2.125 0 3.453125 0.5q1.328125 0.5 1.953125 1.265625q0.625 0.75 0.875 1.90625q0.140625 0.71875 0.140625 2.59375l0 3.75q0 3.921875 0.171875 4.96875q0.1875 1.03125 0.71875 1.984375l-2.9375 0q-0.4375 -0.875 -0.5625 -2.046875zm-0.234375 -6.28125q-1.53125 0.625 -4.59375 1.0625q-1.734375 0.25 -2.453125 0.5625q-0.71875 0.3125 -1.109375 0.921875q-0.390625 0.59375 -0.390625 1.328125q0 1.125 0.84375 1.875q0.859375 0.75 2.5 0.75q1.625 0 2.890625 -0.703125q1.265625 -0.71875 1.859375 -1.953125q0.453125 -0.953125 0.453125 -2.8125l0 -1.03125zm6.078125 3.375l2.78125 -0.4375q0.234375 1.671875 1.296875 2.5625q1.078125 0.890625 3.0 0.890625q1.9375 0 2.875 -0.78125q0.9375 -0.796875 0.9375 -1.859375q0 -0.953125 -0.828125 -1.5q-0.578125 -0.375 -2.875 -0.953125q-3.09375 -0.78125 -4.296875 -1.34375q-1.1875 -0.578125 -1.8125 -1.578125q-0.609375 -1.015625 -0.609375 -2.234375q0 -1.109375 0.5 -2.046875q0.515625 -0.953125 1.390625 -1.578125q0.65625 -0.484375 1.78125 -0.8125q1.140625 -0.34375 2.4375 -0.34375q1.953125 0 3.421875 0.5625q1.484375 0.5625 2.1875 1.53125q0.703125 0.953125 0.96875 2.5625l-2.75 0.375q-0.1875 -1.28125 -1.09375 -2.0q-0.890625 -0.71875 -2.53125 -0.71875q-1.9375 0 -2.765625 0.640625q-0.828125 0.640625 -0.828125 1.5q0 0.546875 0.34375 0.984375q0.34375 0.453125 1.078125 0.75q0.421875 0.15625 2.484375 0.71875q2.984375 0.796875 4.15625 1.3125q1.1875 0.5 1.859375 1.46875q0.671875 0.96875 0.671875 2.40625q0 1.40625 -0.828125 2.65625q-0.8125 1.234375 -2.359375 1.921875q-1.546875 0.671875 -3.5 0.671875q-3.234375 0 -4.9375 -1.34375q-1.6875 -1.34375 -2.15625 -3.984375zm28.484375 -0.390625l2.90625 0.359375q-0.6875 2.546875 -2.546875 3.953125q-1.859375 1.40625 -4.75 1.40625q-3.640625 0 -5.78125 -2.234375q-2.125 -2.25 -2.125 -6.296875q0 -4.1875 2.15625 -6.5q2.15625 -2.3125 5.59375 -2.3125q3.328125 0 5.4375 2.265625q2.109375 2.265625 2.109375 6.375q0 0.25 -0.015625 0.75l-12.375 0q0.15625 2.734375 1.546875 4.1875q1.390625 1.453125 3.46875 1.453125q1.546875 0 2.640625 -0.8125q1.09375 -0.8125 1.734375 -2.59375zm-9.234375 -4.546875l9.265625 0q-0.1875 -2.09375 -1.0625 -3.140625q-1.34375 -1.625 -3.484375 -1.625q-1.9375 0 -3.265625 1.296875q-1.3125 1.296875 -1.453125 3.46875zm14.546875 4.9375l2.78125 -0.4375q0.234375 1.671875 1.296875 2.5625q1.078125 0.890625 3.0 0.890625q1.9375 0 2.875 -0.78125q0.9375 -0.796875 0.9375 -1.859375q0 -0.953125 -0.828125 -1.5q-0.578125 -0.375 -2.875 -0.953125q-3.09375 -0.78125 -4.296875 -1.34375q-1.1875 -0.578125 -1.8125 -1.578125q-0.609375 -1.015625 -0.609375 -2.234375q0 -1.109375 0.5 -2.046875q0.515625 -0.953125 1.390625 -1.578125q0.65625 -0.484375 1.78125 -0.8125q1.140625 -0.34375 2.4375 -0.34375q1.953125 0 3.421875 0.5625q1.484375 0.5625 2.1875 1.53125q0.703125 0.953125 0.96875 2.5625l-2.75 0.375q-0.1875 -1.28125 -1.09375 -2.0q-0.890625 -0.71875 -2.53125 -0.71875q-1.9375 0 -2.765625 0.640625q-0.828125 0.640625 -0.828125 1.5q0 0.546875 0.34375 0.984375q0.34375 0.453125 1.078125 0.75q0.421875 0.15625 2.484375 0.71875q2.984375 0.796875 4.15625 1.3125q1.1875 0.5 1.859375 1.46875q0.671875 0.96875 0.671875 2.40625q0 1.40625 -0.828125 2.65625q-0.8125 1.234375 -2.359375 1.921875q-1.546875 0.671875 -3.5 0.671875q-3.234375 0 -4.9375 -1.34375q-1.6875 -1.34375 -2.15625 -3.984375z" fill-rule="nonzero"></path><path fill="#000000" fill-opacity="0.0" d="m341.63123 644.24805l491.9685 0l0 57.385803l-491.9685 0z" fill-rule="evenodd"></path><path fill="#000000" d="m527.7014 676.60864l2.859375 -0.25q0.203125 1.71875 0.9375 2.828125q0.75 1.09375 2.3125 1.78125q1.5625 0.671875 3.515625 0.671875q1.734375 0 3.0625 -0.515625q1.328125 -0.515625 1.96875 -1.40625q0.65625 -0.90625 0.65625 -1.96875q0 -1.078125 -0.625 -1.875q-0.625 -0.8125 -2.0625 -1.359375q-0.921875 -0.359375 -4.078125 -1.109375q-3.15625 -0.765625 -4.421875 -1.4375q-1.640625 -0.859375 -2.453125 -2.125q-0.796875 -1.28125 -0.796875 -2.859375q0 -1.734375 0.984375 -3.234375q0.984375 -1.515625 2.875 -2.296875q1.890625 -0.78125 4.203125 -0.78125q2.546875 0 4.484375 0.828125q1.953125 0.8125 3.0 2.40625q1.046875 1.59375 1.125 3.609375l-2.90625 0.21875q-0.234375 -2.171875 -1.59375 -3.28125q-1.34375 -1.109375 -3.984375 -1.109375q-2.75 0 -4.015625 1.015625q-1.25 1.0 -1.25 2.421875q0 1.234375 0.890625 2.03125q0.875 0.796875 4.5625 1.640625q3.703125 0.828125 5.078125 1.453125q2.0 0.921875 2.953125 2.34375q0.953125 1.40625 0.953125 3.25q0 1.828125 -1.046875 3.453125q-1.046875 1.609375 -3.015625 2.515625q-1.953125 0.890625 -4.40625 0.890625q-3.109375 0 -5.21875 -0.90625q-2.09375 -0.90625 -3.296875 -2.71875q-1.1875 -1.828125 -1.25 -4.125zm33.375 2.015625l2.90625 0.359375q-0.6875 2.546875 -2.546875 3.953125q-1.859375 1.40625 -4.75 1.40625q-3.640625 0 -5.78125 -2.234375q-2.125 -2.25 -2.125 -6.296875q0 -4.1875 2.15625 -6.5q2.15625 -2.3125 5.59375 -2.3125q3.328125 0 5.4375 2.265625q2.109375 2.265625 2.109375 6.375q0 0.25 -0.015625 0.75l-12.375 0q0.15625 2.734375 1.546875 4.1875q1.390625 1.453125 3.46875 1.453125q1.546875 0 2.640625 -0.8125q1.09375 -0.8125 1.734375 -2.59375zm-9.234375 -4.546875l9.265625 0q-0.1875 -2.09375 -1.0625 -3.140625q-1.34375 -1.625 -3.484375 -1.625q-1.9375 0 -3.265625 1.296875q-1.3125 1.296875 -1.453125 3.46875zm15.640625 9.890625l0 -16.59375l2.53125 0l0 2.515625q0.96875 -1.765625 1.78125 -2.328125q0.828125 -0.5625 1.8125 -0.5625q1.421875 0 2.890625 0.90625l-0.96875 2.609375q-1.03125 -0.609375 -2.0625 -0.609375q-0.921875 0 -1.65625 0.5625q-0.734375 0.546875 -1.046875 1.53125q-0.46875 1.5 -0.46875 3.28125l0 8.6875l-2.8125 0zm15.296875 0l-6.3125 -16.59375l2.96875 0l3.5625 9.9375q0.578125 1.609375 1.0625 3.34375q0.375 -1.3125 1.046875 -3.15625l3.6875 -10.125l2.890625 0l-6.28125 16.59375l-2.625 0zm11.40625 -19.671875l0 -3.234375l2.8125 0l0 3.234375l-2.8125 0zm0 19.671875l0 -16.59375l2.8125 0l0 16.59375l-2.8125 0zm17.921875 -6.078125l2.765625 0.359375q-0.453125 2.859375 -2.328125 4.484375q-1.859375 1.609375 -4.578125 1.609375q-3.40625 0 -5.484375 -2.21875q-2.0625 -2.234375 -2.0625 -6.390625q0 -2.6875 0.890625 -4.703125q0.890625 -2.015625 2.703125 -3.015625q1.828125 -1.015625 3.96875 -1.015625q2.703125 0 4.421875 1.375q1.71875 1.359375 2.203125 3.875l-2.734375 0.421875q-0.390625 -1.671875 -1.390625 -2.515625q-0.984375 -0.84375 -2.390625 -0.84375q-2.125 0 -3.453125 1.53125q-1.328125 1.515625 -1.328125 4.8125q0 3.34375 1.28125 4.859375q1.28125 1.515625 3.34375 1.515625q1.65625 0 2.765625 -1.015625q1.109375 -1.015625 1.40625 -3.125zm16.53125 0.734375l2.90625 0.359375q-0.6875 2.546875 -2.546875 3.953125q-1.859375 1.40625 -4.75 1.40625q-3.640625 0 -5.78125 -2.234375q-2.125 -2.25 -2.125 -6.296875q0 -4.1875 2.15625 -6.5q2.15625 -2.3125 5.59375 -2.3125q3.328125 0 5.4375 2.265625q2.109375 2.265625 2.109375 6.375q0 0.25 -0.015625 0.75l-12.375 0q0.15625 2.734375 1.546875 4.1875q1.390625 1.453125 3.46875 1.453125q1.546875 0 2.640625 -0.8125q1.09375 -0.8125 1.734375 -2.59375zm-9.234375 -4.546875l9.265625 0q-0.1875 -2.09375 -1.0625 -3.140625q-1.34375 -1.625 -3.484375 -1.625q-1.9375 0 -3.265625 1.296875q-1.3125 1.296875 -1.453125 3.46875zm14.546875 4.9375l2.78125 -0.4375q0.234375 1.671875 1.296875 2.5625q1.078125 0.890625 3.0 0.890625q1.9375 0 2.875 -0.78125q0.9375 -0.796875 0.9375 -1.859375q0 -0.953125 -0.828125 -1.5q-0.578125 -0.375 -2.875 -0.953125q-3.09375 -0.78125 -4.296875 -1.34375q-1.1875 -0.578125 -1.8125 -1.578125q-0.609375 -1.015625 -0.609375 -2.234375q0 -1.109375 0.5 -2.046875q0.515625 -0.953125 1.390625 -1.578125q0.65625 -0.484375 1.78125 -0.8125q1.140625 -0.34375 2.4375 -0.34375q1.953125 0 3.421875 0.5625q1.484375 0.5625 2.1875 1.53125q0.703125 0.953125 0.96875 2.5625l-2.75 0.375q-0.1875 -1.28125 -1.09375 -2.0q-0.890625 -0.71875 -2.53125 -0.71875q-1.9375 0 -2.765625 0.640625q-0.828125 0.640625 -0.828125 1.5q0 0.546875 0.34375 0.984375q0.34375 0.453125 1.078125 0.75q0.421875 0.15625 2.484375 0.71875q2.984375 0.796875 4.15625 1.3125q1.1875 0.5 1.859375 1.46875q0.671875 0.96875 0.671875 2.40625q0 1.40625 -0.828125 2.65625q-0.8125 1.234375 -2.359375 1.921875q-1.546875 0.671875 -3.5 0.671875q-3.234375 0 -4.9375 -1.34375q-1.6875 -1.34375 -2.15625 -3.984375z" fill-rule="nonzero"></path><path fill="#000000" fill-opacity="0.0" d="m341.63123 140.5l491.9685 0l0 57.385834l-491.9685 0z" fill-rule="evenodd"></path><path fill="#000000" d="m589.1155 157.31375l3.03125 0l0 13.234375q0 3.453125 -0.78125 5.484375q-0.78125 2.03125 -2.828125 3.3125q-2.03125 1.265625 -5.34375 1.265625q-3.21875 0 -5.265625 -1.109375q-2.046875 -1.109375 -2.921875 -3.203125q-0.875 -2.109375 -0.875 -5.75l0 -13.234375l3.03125 0l0 13.21875q0 2.984375 0.546875 4.40625q0.5625 1.40625 1.90625 2.171875q1.359375 0.765625 3.3125 0.765625q3.34375 0 4.765625 -1.515625q1.421875 -1.515625 1.421875 -5.828125l0 -13.21875zm8.59375 22.90625l0 -22.90625l3.03125 0l0 22.90625l-3.03125 0z" fill-rule="nonzero"></path><path fill="#000000" fill-opacity="0.0" d="m528.7664 456.99213l117.700745 0l0 67.1181l-117.700745 0z" fill-rule="evenodd"></path><path fill="#000000" d="m558.7963 483.9121l0 -9.859375l1.5 0l0 1.390625q0.453125 -0.71875 1.21875 -1.15625q0.78125 -0.453125 1.765625 -0.453125q1.09375 0 1.796875 0.453125q0.703125 0.453125 0.984375 1.28125q1.171875 -1.734375 3.046875 -1.734375q1.46875 0 2.25 0.8125q0.796875 0.8125 0.796875 2.5l0 6.765625l-1.671875 0l0 -6.203125q0 -1.0 -0.15625 -1.4375q-0.15625 -0.453125 -0.59375 -0.71875q-0.421875 -0.265625 -1.0 -0.265625q-1.03125 0 -1.71875 0.6875q-0.6875 0.6875 -0.6875 2.21875l0 5.71875l-1.671875 0l0 -6.40625q0 -1.109375 -0.40625 -1.65625q-0.40625 -0.5625 -1.34375 -0.5625q-0.703125 0 -1.3125 0.375q-0.59375 0.359375 -0.859375 1.078125q-0.265625 0.71875 -0.265625 2.0625l0 5.109375l-1.671875 0zm14.9158325 -4.921875q0 -2.734375 1.53125 -4.0625q1.265625 -1.09375 3.09375 -1.09375q2.03125 0 3.3125 1.34375q1.296875 1.328125 1.296875 3.671875q0 1.90625 -0.578125 3.0q-0.5625 1.078125 -1.65625 1.6875q-1.078125 0.59375 -2.375 0.59375q-2.0625 0 -3.34375 -1.328125q-1.28125 -1.328125 -1.28125 -3.8125zm1.71875 0q0 1.890625 0.828125 2.828125q0.828125 0.9375 2.078125 0.9375q1.25 0 2.0625 -0.9375q0.828125 -0.953125 0.828125 -2.890625q0 -1.828125 -0.828125 -2.765625q-0.828125 -0.9375 -2.0625 -0.9375q-1.25 0 -2.078125 0.9375q-0.828125 0.9375 -0.828125 2.828125zm15.672607 4.921875l0 -1.25q-0.9375 1.46875 -2.75 1.46875q-1.171875 0 -2.171875 -0.640625q-0.984375 -0.65625 -1.53125 -1.8125q-0.53125 -1.171875 -0.53125 -2.6875q0 -1.46875 0.484375 -2.671875q0.5 -1.203125 1.46875 -1.84375q0.984375 -0.640625 2.203125 -0.640625q0.890625 0 1.578125 0.375q0.703125 0.375 1.140625 0.984375l0 -4.875l1.65625 0l0 13.59375l-1.546875 0zm-5.28125 -4.921875q0 1.890625 0.796875 2.828125q0.8125 0.9375 1.890625 0.9375q1.09375 0 1.859375 -0.890625q0.765625 -0.890625 0.765625 -2.734375q0 -2.015625 -0.78125 -2.953125q-0.78125 -0.953125 -1.921875 -0.953125q-1.109375 0 -1.859375 0.90625q-0.75 0.90625 -0.75 2.859375zm16.016296 1.75l1.71875 0.21875q-0.40625 1.5 -1.515625 2.34375q-1.09375 0.828125 -2.8125 0.828125q-2.15625 0 -3.421875 -1.328125q-1.265625 -1.328125 -1.265625 -3.734375q0 -2.484375 1.265625 -3.859375q1.28125 -1.375 3.328125 -1.375q1.984375 0 3.234375 1.34375q1.25 1.34375 1.25 3.796875q0 0.140625 -0.015625 0.4375l-7.34375 0q0.09375 1.625 0.921875 2.484375q0.828125 0.859375 2.0625 0.859375q0.90625 0 1.546875 -0.46875q0.65625 -0.484375 1.046875 -1.546875zm-5.484375 -2.703125l5.5 0q-0.109375 -1.234375 -0.625 -1.859375q-0.796875 -0.96875 -2.078125 -0.96875q-1.140625 0 -1.9375 0.78125q-0.78125 0.765625 -0.859375 2.046875zm9.078857 5.875l0 -13.59375l1.671875 0l0 13.59375l-1.671875 0zm3.5042114 -2.9375l1.65625 -0.265625q0.140625 1.0 0.765625 1.53125q0.640625 0.515625 1.78125 0.515625q1.15625 0 1.703125 -0.46875q0.5625 -0.46875 0.5625 -1.09375q0 -0.5625 -0.484375 -0.890625q-0.34375 -0.21875 -1.703125 -0.5625q-1.84375 -0.46875 -2.5625 -0.796875q-0.703125 -0.34375 -1.078125 -0.9375q-0.359375 -0.609375 -0.359375 -1.328125q0 -0.65625 0.296875 -1.21875q0.3125 -0.5625 0.828125 -0.9375q0.390625 -0.28125 1.0625 -0.484375q0.671875 -0.203125 1.4375 -0.203125q1.171875 0 2.046875 0.34375q0.875 0.328125 1.28125 0.90625q0.421875 0.5625 0.578125 1.515625l-1.625 0.21875q-0.109375 -0.75 -0.65625 -1.171875q-0.53125 -0.4375 -1.5 -0.4375q-1.15625 0 -1.640625 0.390625q-0.484375 0.375 -0.484375 0.875q0 0.328125 0.203125 0.59375q0.203125 0.265625 0.640625 0.4375q0.25 0.09375 1.46875 0.4375q1.765625 0.46875 2.46875 0.765625q0.703125 0.296875 1.09375 0.875q0.40625 0.578125 0.40625 1.4375q0 0.828125 -0.484375 1.578125q-0.484375 0.734375 -1.40625 1.140625q-0.921875 0.390625 -2.078125 0.390625q-1.921875 0 -2.9375 -0.796875q-1.0 -0.796875 -1.28125 -2.359375z" fill-rule="nonzero"></path><path fill="#000000" fill-opacity="0.0" d="m797.6417 667.0512l0 -491.96854l57.385864 0l0 491.96854z" fill-rule="evenodd"></path><path fill="#000000" d="m837.36176 487.09036l-22.90625 0l0 -7.890625q0 -2.671875 0.328125 -4.078125q0.453125 -1.96875 1.640625 -3.359375q1.53125 -1.8125 3.921875 -2.703125q2.375 -0.90625 5.4375 -0.90625q2.609375 0 4.625 0.609375q2.015625 0.609375 3.34375 1.5625q1.3125 0.953125 2.078125 2.09375q0.75 1.125 1.140625 2.734375q0.390625 1.59375 0.390625 3.671875l0 8.265625zm-2.703125 -3.03125l0 -4.890625q0 -2.265625 -0.421875 -3.546875q-0.421875 -1.296875 -1.1875 -2.0625q-1.078125 -1.078125 -2.890625 -1.671875q-1.828125 -0.609375 -4.421875 -0.609375q-3.59375 0 -5.515625 1.1875q-1.9375 1.171875 -2.59375 2.859375q-0.46875 1.21875 -0.46875 3.921875l0 4.8125l17.5 0zm0.65625 -30.546875q1.328125 1.5625 1.875 3.015625q0.546875 1.4375 0.546875 3.09375q0 2.734375 -1.328125 4.203125q-1.34375 1.46875 -3.421875 1.46875q-1.21875 0 -2.21875 -0.546875q-1.015625 -0.5625 -1.625 -1.453125q-0.609375 -0.90625 -0.921875 -2.03125q-0.21875 -0.828125 -0.421875 -2.5q-0.40625 -3.40625 -0.96875 -5.015625q-0.578125 -0.015625 -0.734375 -0.015625q-1.71875 0 -2.421875 0.796875q-0.953125 1.078125 -0.953125 3.203125q0 1.984375 0.703125 2.9375q0.6875 0.9375 2.453125 1.390625l-0.375 2.75q-1.765625 -0.375 -2.84375 -1.234375q-1.09375 -0.859375 -1.671875 -2.484375q-0.59375 -1.625 -0.59375 -3.765625q0 -2.125 0.5 -3.453125q0.5 -1.328125 1.265625 -1.953125q0.75 -0.625 1.90625 -0.875q0.71875 -0.140625 2.59375 -0.140625l3.75 0q3.921875 0 4.96875 -0.171875q1.03125 -0.1875 1.984375 -0.71875l0 2.9375q-0.875 0.4375 -2.046875 0.5625zm-6.28125 0.234375q0.625 1.53125 1.0625 4.59375q0.25 1.734375 0.5625 2.453125q0.3125 0.71875 0.921875 1.109375q0.59375 0.390625 1.328125 0.390625q1.125 0 1.875 -0.84375q0.75 -0.859375 0.75 -2.5q0 -1.625 -0.703125 -2.890625q-0.71875 -1.265625 -1.953125 -1.859375q-0.953125 -0.453125 -2.8125 -0.453125l-1.03125 0zm5.8125 -13.34375l2.484375 -0.40625q0.25 1.1875 0.25 2.125q0 1.53125 -0.484375 2.375q-0.484375 0.84375 -1.265625 1.1875q-0.796875 0.34375 -3.328125 0.34375l-9.546875 0l0 2.0625l-2.1875 0l0 -2.0625l-4.109375 0l-1.6875 -2.796875l5.796875 0l0 -2.828125l2.1875 0l0 2.828125l9.703125 0q1.203125 0 1.546875 -0.140625q0.34375 -0.15625 0.546875 -0.484375q0.203125 -0.34375 0.203125 -0.96875q0 -0.46875 -0.109375 -1.234375zm0.46875 -13.578125q1.328125 1.5625 1.875 3.015625q0.546875 1.4375 0.546875 3.09375q0 2.734375 -1.328125 4.203125q-1.34375 1.46875 -3.421875 1.46875q-1.21875 0 -2.21875 -0.546875q-1.015625 -0.5625 -1.625 -1.453125q-0.609375 -0.90625 -0.921875 -2.03125q-0.21875 -0.828125 -0.421875 -2.5q-0.40625 -3.40625 -0.96875 -5.015625q-0.578125 -0.015625 -0.734375 -0.015625q-1.71875 0 -2.421875 0.796875q-0.953125 1.078125 -0.953125 3.203125q0 1.984375 0.703125 2.9375q0.6875 0.9375 2.453125 1.390625l-0.375 2.75q-1.765625 -0.375 -2.84375 -1.234375q-1.09375 -0.859375 -1.671875 -2.484375q-0.59375 -1.625 -0.59375 -3.765625q0 -2.125 0.5 -3.453125q0.5 -1.328125 1.265625 -1.953125q0.75 -0.625 1.90625 -0.875q0.71875 -0.140625 2.59375 -0.140625l3.75 0q3.921875 0 4.96875 -0.171875q1.03125 -0.1875 1.984375 -0.71875l0 2.9375q-0.875 0.4375 -2.046875 0.5625zm-6.28125 0.234375q0.625 1.53125 1.0625 4.59375q0.25 1.734375 0.5625 2.453125q0.3125 0.71875 0.921875 1.109375q0.59375 0.390625 1.328125 0.390625q1.125 0 1.875 -0.84375q0.75 -0.859375 0.75 -2.5q0 -1.625 -0.703125 -2.890625q-0.71875 -1.265625 -1.953125 -1.859375q-0.953125 -0.453125 -2.8125 -0.453125l-1.03125 0zm8.328125 -9.796875l0 2.609375l-22.90625 0l0 -2.8125l8.171875 0q-2.234375 -1.78125 -2.234375 -4.546875q0 -1.53125 0.625 -2.890625q0.609375 -1.375 1.734375 -2.25q1.109375 -0.890625 2.6875 -1.390625q1.578125 -0.5 3.375 -0.5q4.265625 0 6.59375 2.109375q2.328125 2.109375 2.328125 5.0625q0 2.9375 -2.453125 4.609375l2.078125 0zm-8.421875 0.03125q2.984375 0 4.3125 -0.8125q2.171875 -1.328125 2.171875 -3.59375q0 -1.84375 -1.59375 -3.1875q-1.609375 -1.34375 -4.78125 -1.34375q-3.25 0 -4.796875 1.296875q-1.546875 1.28125 -1.546875 3.109375q0 1.84375 1.609375 3.1875q1.59375 1.34375 4.625 1.34375zm6.375 -26.0625q1.328125 1.5625 1.875 3.015625q0.546875 1.4375 0.546875 3.09375q0 2.734375 -1.328125 4.203125q-1.34375 1.46875 -3.421875 1.46875q-1.21875 0 -2.21875 -0.546875q-1.015625 -0.5625 -1.625 -1.453125q-0.609375 -0.90625 -0.921875 -2.03125q-0.21875 -0.828125 -0.421875 -2.5q-0.40625 -3.40625 -0.96875 -5.015625q-0.578125 -0.015625 -0.734375 -0.015625q-1.71875 0 -2.421875 0.796875q-0.953125 1.078125 -0.953125 3.203125q0 1.984375 0.703125 2.9375q0.6875 0.9375 2.453125 1.390625l-0.375 2.75q-1.765625 -0.375 -2.84375 -1.234375q-1.09375 -0.859375 -1.671875 -2.484375q-0.59375 -1.625 -0.59375 -3.765625q0 -2.125 0.5 -3.453125q0.5 -1.328125 1.265625 -1.953125q0.75 -0.625 1.90625 -0.875q0.71875 -0.140625 2.59375 -0.140625l3.75 0q3.921875 0 4.96875 -0.171875q1.03125 -0.1875 1.984375 -0.71875l0 2.9375q-0.875 0.4375 -2.046875 0.5625zm-6.28125 0.234375q0.625 1.53125 1.0625 4.59375q0.25 1.734375 0.5625 2.453125q0.3125 0.71875 0.921875 1.109375q0.59375 0.390625 1.328125 0.390625q1.125 0 1.875 -0.84375q0.75 -0.859375 0.75 -2.5q0 -1.625 -0.703125 -2.890625q-0.71875 -1.265625 -1.953125 -1.859375q-0.953125 -0.453125 -2.8125 -0.453125l-1.03125 0zm3.375 -6.078125l-0.4375 -2.78125q1.671875 -0.234375 2.5625 -1.296875q0.890625 -1.078125 0.890625 -3.0q0 -1.9375 -0.78125 -2.875q-0.796875 -0.9375 -1.859375 -0.9375q-0.953125 0 -1.5 0.828125q-0.375 0.578125 -0.953125 2.875q-0.78125 3.09375 -1.34375 4.296875q-0.578125 1.1875 -1.578125 1.8125q-1.015625 0.609375 -2.234375 0.609375q-1.109375 0 -2.046875 -0.5q-0.953125 -0.515625 -1.578125 -1.390625q-0.484375 -0.65625 -0.8125 -1.78125q-0.34375 -1.140625 -0.34375 -2.4375q0 -1.953125 0.5625 -3.421875q0.5625 -1.484375 1.53125 -2.1875q0.953125 -0.703125 2.5625 -0.96875l0.375 2.75q-1.28125 0.1875 -2.0 1.09375q-0.71875 0.890625 -0.71875 2.53125q0 1.9375 0.640625 2.765625q0.640625 0.828125 1.5 0.828125q0.546875 0 0.984375 -0.34375q0.453125 -0.34375 0.75 -1.078125q0.15625 -0.421875 0.71875 -2.484375q0.796875 -2.984375 1.3125 -4.15625q0.5 -1.1875 1.46875 -1.859375q0.96875 -0.671875 2.40625 -0.671875q1.40625 0 2.65625 0.828125q1.234375 0.8125 1.921875 2.359375q0.671875 1.546875 0.671875 3.5q0 3.234375 -1.34375 4.9375q-1.34375 1.6875 -3.984375 2.15625zm-0.390625 -28.484375l0.359375 -2.90625q2.546875 0.6875 3.953125 2.546875q1.40625 1.859375 1.40625 4.75q0 3.640625 -2.234375 5.78125q-2.25 2.125 -6.296875 2.125q-4.1875 0 -6.5 -2.15625q-2.3125 -2.15625 -2.3125 -5.59375q0 -3.328125 2.265625 -5.4375q2.265625 -2.109375 6.375 -2.109375q0.25 0 0.75 0.015625l0 12.375q2.734375 -0.15625 4.1875 -1.546875q1.453125 -1.390625 1.453125 -3.46875q0 -1.546875 -0.8125 -2.640625q-0.8125 -1.09375 -2.59375 -1.734375zm-4.546875 9.234375l0 -9.265625q-2.09375 0.1875 -3.140625 1.0625q-1.625 1.34375 -1.625 3.484375q0 1.9375 1.296875 3.265625q1.296875 1.3125 3.46875 1.453125z" fill-rule="nonzero"></path><path fill="#000000" fill-opacity="0.0" d="m377.58398 175.08267l0 491.96854l-57.385834 0l0 -491.96854z" fill-rule="evenodd"></path><path fill="#000000" d="m337.86398 364.82474l22.90625 0l0 3.109375l-17.984375 12.03125l17.984375 0l0 2.90625l-22.90625 0l0 -3.109375l18.0 -12.03125l-18.0 0l0 -2.90625zm5.34375 34.140625l-0.359375 2.90625q-2.546875 -0.6875 -3.953125 -2.546875q-1.40625 -1.859375 -1.40625 -4.75q0 -3.640625 2.234375 -5.78125q2.25 -2.125 6.296875 -2.125q4.1875 0 6.5 2.15625q2.3125 2.15625 2.3125 5.59375q0 3.328125 -2.265625 5.4375q-2.265625 2.109375 -6.375 2.109375q-0.25 0 -0.75 -0.015625l0 -12.375q-2.734375 0.15625 -4.1875 1.546875q-1.453125 1.390625 -1.453125 3.46875q0 1.546875 0.8125 2.640625q0.8125 1.09375 2.59375 1.734375zm4.546875 -9.234375l0 9.265625q2.09375 -0.1875 3.140625 -1.0625q1.625 -1.34375 1.625 -3.484375q0 -1.9375 -1.296875 -3.265625q-1.296875 -1.3125 -3.46875 -1.453125zm-7.375 21.8125l-2.484375 0.40625q-0.25 -1.1875 -0.25 -2.125q0 -1.53125 0.484375 -2.375q0.484375 -0.84375 1.265625 -1.1875q0.796875 -0.34375 3.328125 -0.34375l9.546875 0l0 -2.0625l2.1875 0l0 2.0625l4.109375 0l1.6875 2.796875l-5.796875 0l0 2.828125l-2.1875 0l0 -2.828125l-9.703125 0q-1.203125 0 -1.546875 0.140625q-0.34375 0.15625 -0.546875 0.484375q-0.203125 0.34375 -0.203125 0.96875q0 0.46875 0.109375 1.234375zm-2.515625 5.8125l16.59375 -5.078125l0 2.90625l-9.578125 2.640625l-3.5625 0.984375q0.265625 0.0625 3.421875 0.859375l9.71875 2.640625l0 2.890625l-9.625 2.484375l-3.171875 0.828125l3.203125 0.953125l9.59375 2.84375l0 2.734375l-16.59375 -5.1875l0 -2.921875l9.9375 -2.640625l2.828125 -0.640625l-12.765625 -3.359375l0 -2.9375zm8.296875 19.0q4.609375 0 6.828125 2.5625q1.84375 2.140625 1.84375 5.21875q0 3.421875 -2.25 5.59375q-2.234375 2.171875 -6.1875 2.171875q-3.203125 0 -5.046875 -0.96875q-1.828125 -0.953125 -2.84375 -2.796875q-1.015625 -1.828125 -1.015625 -4.0q0 -3.484375 2.234375 -5.640625q2.234375 -2.140625 6.4375 -2.140625zm0 2.890625q-3.1875 0 -4.78125 1.390625q-1.578125 1.390625 -1.578125 3.5q0 2.09375 1.59375 3.484375q1.59375 1.390625 4.859375 1.390625q3.078125 0 4.65625 -1.40625q1.59375 -1.390625 1.59375 -3.46875q0 -2.109375 -1.578125 -3.5q-1.578125 -1.390625 -4.765625 -1.390625zm-8.296875 15.921875l16.59375 0l0 2.53125l-2.515625 0q1.765625 0.96875 2.328125 1.78125q0.5625 0.828125 0.5625 1.8125q0 1.421875 -0.90625 2.890625l-2.609375 -0.96875q0.609375 -1.03125 0.609375 -2.0625q0 -0.921875 -0.5625 -1.65625q-0.546875 -0.734375 -1.53125 -1.046875q-1.5 -0.46875 -3.28125 -0.46875l-8.6875 0l0 -2.8125zm0 10.703125l22.90625 0l0 2.8125l-13.0625 0l6.75 6.65625l0 3.640625l-6.15625 -6.34375l-10.4375 6.984375l0 -3.46875l8.484375 -5.484375l-1.90625 -1.984375l-6.578125 0l0 -2.8125z" fill-rule="nonzero"></path></g></svg>

